<svg xmlns="http://www.w3.org/2000/svg" xmlns:xlink="http://www.w3.org/1999/xlink" viewBox="0 0 80 20"><path d="M 40.668 3.111 C 39.235 3.98 37.888 5.012 36.627 6.21 C 35.367 7.377 34.135 8.575 32.93 9.803 C 32.243 10.491 31.569 11.195 30.91 11.913 L 28.933 14.069 C 28.576 14.503 28.203 14.922 27.815 15.326 C 27.428 15.731 27.056 16.151 26.697 16.584 C 27.294 16.436 27.882 16.256 28.46 16.045 C 29.001 15.855 29.546 15.675 30.093 15.506 C 30.557 15.407 31.016 15.287 31.469 15.146 C 31.949 14.998 32.437 14.879 32.93 14.787 C 33.409 14.669 33.9 14.608 34.392 14.608 C 34.908 14.578 35.38 14.653 35.81 14.832 C 36.355 15.042 36.684 15.401 36.799 15.91 C 36.885 16.239 36.856 16.554 36.713 16.853 C 37.191 16.706 37.665 16.542 38.131 16.359 C 38.619 16.179 39.077 16.015 39.507 15.865 L 42 15.057 C 42.829 14.758 43.676 14.518 44.536 14.338 C 44.766 14.278 45.038 14.248 45.353 14.248 C 45.697 14.218 45.998 14.248 46.256 14.338 C 46.514 14.428 46.7 14.593 46.815 14.832 C 46.958 15.042 46.972 15.356 46.857 15.775 C 46.771 16.045 46.6 16.269 46.342 16.449 C 46.084 16.598 45.783 16.718 45.439 16.808 C 45.098 16.897 44.754 16.972 44.407 17.033 C 44.063 17.063 43.791 17.108 43.591 17.167 C 42.625 17.464 41.665 17.778 40.711 18.11 L 37.874 19.009 C 37.347 19.17 36.816 19.319 36.283 19.458 C 35.71 19.637 35.165 19.667 34.65 19.548 C 34.449 19.518 34.234 19.428 34.005 19.278 C 33.518 18.889 33.289 18.53 33.317 18.2 C 33.346 17.871 33.475 17.542 33.704 17.212 L 33.188 17.212 C 32.157 17.392 31.125 17.617 30.093 17.886 C 29.241 18.132 28.395 18.402 27.557 18.694 C 26.723 18.994 25.857 19.19 24.978 19.278 C 24.663 19.308 24.348 19.248 24.032 19.098 C 23.717 18.978 23.488 18.724 23.345 18.335 C 23.23 18.006 23.23 17.691 23.345 17.392 C 23.462 17.058 23.621 16.74 23.817 16.449 C 22.986 16.958 22.198 17.392 21.453 17.751 C 20.737 18.08 20.192 18.32 19.82 18.47 C 19.021 18.822 18.218 19.166 17.413 19.502 C 16.553 19.862 15.693 20.026 14.833 19.996 C 13.888 19.937 13.315 19.667 13.114 19.188 C 12.913 18.709 12.957 18.11 13.243 17.392 C 13.501 16.644 13.917 15.85 14.49 15.012 C 15.052 14.158 15.654 13.334 16.295 12.542 C 16.954 11.764 17.556 11.09 18.1 10.521 C 18.645 9.922 19.003 9.533 19.175 9.354 L 19.777 8.725 L 17.327 8.725 C 16.524 8.725 15.707 8.74 14.877 8.77 C 13.214 8.83 11.567 8.919 9.933 9.039 C 8.271 9.129 6.609 9.264 4.947 9.444 C 4.345 9.533 3.758 9.623 3.185 9.713 C 2.583 9.773 1.981 9.877 1.379 10.027 C 1.236 10.057 1.078 10.102 0.906 10.162 C 0.734 10.222 0.577 10.222 0.433 10.162 C 0.118 10.042 -0.025 9.832 0.004 9.533 C 0.004 9.204 0.147 8.994 0.433 8.905 C 3.872 7.977 7.411 7.393 11.051 7.153 C 14.642 6.886 18.24 6.721 21.84 6.659 C 22.585 5.941 23.33 5.237 24.075 4.549 C 24.828 3.853 25.588 3.164 26.353 2.483 C 26.726 2.124 27.156 1.675 27.643 1.136 C 28.159 0.567 28.675 0.208 29.191 0.058 C 29.477 -0.032 29.721 -0.017 29.921 0.103 C 30.151 0.193 30.323 0.357 30.437 0.597 C 30.552 0.806 30.595 1.046 30.566 1.315 C 30.537 1.585 30.423 1.824 30.222 2.034 C 29.342 2.805 28.468 3.583 27.6 4.369 C 26.734 5.123 25.889 5.902 25.064 6.704 C 25.494 6.704 25.895 6.764 26.268 6.884 C 26.611 6.974 26.912 7.123 27.17 7.333 C 27.457 7.542 27.657 7.857 27.772 8.276 C 27.858 8.635 27.815 8.95 27.643 9.219 C 27.477 9.454 27.255 9.639 26.998 9.758 C 26.74 9.848 26.468 9.863 26.182 9.803 C 25.924 9.713 25.723 9.518 25.58 9.219 C 25.207 9.069 24.777 8.965 24.29 8.905 C 23.803 8.815 23.345 8.77 22.915 8.77 L 22.485 9.174 C 21.23 10.423 19.983 11.68 18.745 12.946 C 17.456 14.293 16.438 15.746 15.693 17.302 C 16.696 17.093 17.728 16.793 18.788 16.404 C 19.851 16.014 20.898 15.58 21.926 15.102 C 22.957 14.623 23.975 14.114 24.978 13.575 C 25.981 13.006 26.913 12.422 27.772 11.824 C 28.854 10.664 29.957 9.526 31.082 8.411 C 32.215 7.286 33.376 6.193 34.564 5.132 C 35.282 4.473 36.012 3.829 36.756 3.201 C 37.489 2.582 38.25 1.998 39.034 1.45 C 39.35 1.211 39.694 1.061 40.066 1.001 C 40.467 0.911 40.797 1.076 41.055 1.495 C 41.198 1.764 41.227 2.064 41.141 2.393 C 41.083 2.692 40.926 2.932 40.668 3.112 Z" fill="rgb(0,0,0)"></path><path d="M 65.81 16.628 C 65.143 16.69 64.481 16.81 63.833 16.988 C 63.203 17.138 62.558 17.287 61.899 17.437 C 60.196 17.852 58.491 18.256 56.783 18.649 C 55.079 19.011 53.357 19.281 51.625 19.458 C 51.14 19.52 50.652 19.565 50.164 19.592 C 49.662 19.622 49.159 19.607 48.659 19.548 C 48.174 19.488 47.698 19.367 47.241 19.188 C 46.783 19.039 46.358 18.794 45.994 18.47 C 45.679 18.2 45.435 17.886 45.263 17.527 C 45.063 17.167 44.948 16.793 44.919 16.404 C 44.862 16.015 44.891 15.64 45.005 15.281 C 45.12 14.892 45.335 14.548 45.65 14.248 C 45.851 14.039 46.166 13.874 46.596 13.754 C 47.054 13.605 47.556 13.5 48.1 13.44 C 48.643 13.38 49.189 13.365 49.734 13.395 C 50.278 13.425 50.751 13.53 51.152 13.71 C 51.554 13.889 51.826 14.144 51.969 14.473 C 52.141 14.772 52.127 15.162 51.926 15.64 C 51.754 16 51.496 16.254 51.152 16.404 C 50.809 16.554 50.422 16.658 49.992 16.718 C 49.548 16.748 49.103 16.748 48.659 16.718 C 48.257 16.667 47.856 16.607 47.456 16.539 C 47.57 16.658 47.799 16.763 48.143 16.853 C 48.487 16.913 48.845 16.958 49.218 16.988 C 49.576 17.016 49.934 17.031 50.293 17.033 L 50.937 17.033 C 52.339 16.913 53.731 16.703 55.107 16.404 C 56.501 16.107 57.89 15.793 59.277 15.461 C 60.28 15.221 61.268 14.982 62.243 14.742 C 63.231 14.476 64.237 14.281 65.251 14.159 C 65.681 14.129 66.04 14.234 66.326 14.473 C 66.613 14.712 66.799 14.997 66.885 15.326 C 66.971 15.626 66.928 15.91 66.756 16.18 C 66.613 16.449 66.297 16.598 65.81 16.628 Z" fill="rgb(0,0,0)"></path><path d="M 78.784 16.628 C 77.323 16.658 75.833 16.703 74.314 16.763 C 72.807 16.795 71.303 16.613 69.843 16.224 C 69.723 16.223 69.606 16.192 69.499 16.134 C 69.327 16.643 69.07 17.137 68.726 17.617 C 68.42 18.055 68.059 18.447 67.651 18.784 C 67.256 19.11 66.803 19.354 66.319 19.502 C 65.86 19.652 65.401 19.667 64.943 19.548 C 64.513 19.428 64.198 19.203 63.997 18.874 C 63.768 18.545 63.639 18.17 63.61 17.751 C 63.582 17.332 63.639 16.913 63.782 16.494 C 63.897 16.075 64.069 15.7 64.298 15.371 C 64.671 14.892 65.144 14.533 65.717 14.293 C 66.29 14.054 66.863 14.024 67.436 14.204 C 67.493 13.784 67.723 13.455 68.124 13.216 C 68.525 12.976 68.955 13.006 69.413 13.305 C 69.844 13.575 70.306 13.787 70.789 13.934 C 71.312 14.055 71.844 14.13 72.379 14.159 C 72.924 14.188 73.454 14.204 73.97 14.204 C 74.514 14.174 75.03 14.159 75.517 14.159 C 76.091 14.159 76.706 14.129 77.366 14.069 C 78.025 13.979 78.626 14.024 79.171 14.204 C 79.486 14.323 79.701 14.518 79.816 14.787 C 79.959 15.057 80.002 15.326 79.945 15.596 C 79.916 15.865 79.802 16.104 79.601 16.314 C 79.4 16.524 79.128 16.628 78.784 16.628 Z M 65.932 17.212 C 66.018 17.122 66.19 17.078 66.447 17.078 L 66.447 16.673 C 66.39 16.733 66.304 16.808 66.19 16.898 C 66.075 16.958 65.989 17.063 65.932 17.212 Z" fill="rgb(0,0,0)"></path></svg>