<svg xmlns="http://www.w3.org/2000/svg" xmlns:xlink="http://www.w3.org/1999/xlink" viewBox="0 0 159 18"><path d="M 23.558 8.628 C 23.558 12.092 20.666 14.9 17.098 14.9 L 7.979 14.9 C 4.412 14.9 1.52 12.092 1.52 8.628 C 1.52 5.164 4.412 2.356 7.979 2.356 L 17.098 2.356 C 20.666 2.356 23.558 5.164 23.558 8.628 Z M 7.979 0.88 C 3.572 0.88 0 4.349 0 8.628 C 0 12.907 3.572 16.376 7.979 16.376 L 17.098 16.376 C 21.505 16.376 25.077 12.907 25.077 8.628 C 25.077 4.349 21.505 0.88 17.098 0.88 Z" fill="rgb(0,0,0)"></path><path d="M 25.077 8.628 C 25.077 12.907 21.505 16.376 17.098 16.376 C 12.692 16.376 9.119 12.907 9.119 8.628 C 9.119 4.349 12.692 0.88 17.098 0.88 C 21.505 0.88 25.077 4.349 25.077 8.628 Z M 29.492 17.633 L 35.217 0 L 39.668 0 L 45.393 17.633 L 42.266 17.633 L 37.071 1.812 L 37.752 1.812 L 32.62 17.633 Z M 32.683 13.812 L 32.683 11.057 L 42.216 11.057 L 42.216 13.812 L 32.683 13.812 Z M 62.515 17.633 L 62.515 9.6 C 62.515 8.694 62.283 7.988 61.821 7.482 C 61.359 6.967 60.732 6.71 59.942 6.71 C 59.455 6.71 59.017 6.82 58.631 7.041 C 58.244 7.253 57.937 7.571 57.71 7.996 C 57.483 8.412 57.37 8.91 57.37 9.49 L 56.021 8.718 C 56.012 7.804 56.222 7 56.651 6.306 C 57.088 5.604 57.677 5.057 58.416 4.665 C 59.156 4.273 59.98 4.077 60.888 4.077 C 62.393 4.077 63.544 4.518 64.343 5.4 C 65.15 6.273 65.554 7.424 65.554 8.853 L 65.554 17.633 Z M 46.135 17.633 L 46.135 4.408 L 48.82 4.408 L 48.82 8.51 L 49.199 8.51 L 49.199 17.633 Z M 54.343 17.633 L 54.343 9.637 C 54.343 8.714 54.112 7.996 53.65 7.482 C 53.188 6.967 52.557 6.71 51.758 6.71 C 50.985 6.71 50.363 6.967 49.892 7.482 C 49.43 7.996 49.199 8.665 49.199 9.49 L 47.837 8.608 C 47.837 7.751 48.055 6.98 48.493 6.294 C 48.93 5.608 49.518 5.069 50.258 4.678 C 51.006 4.278 51.842 4.078 52.767 4.078 C 53.784 4.078 54.633 4.29 55.314 4.714 C 56.004 5.131 56.516 5.702 56.853 6.429 C 57.197 7.147 57.37 7.959 57.37 8.865 L 57.37 17.633 Z M 72.588 18 C 70.906 18 69.54 17.633 68.489 16.898 C 67.439 16.163 66.8 15.131 66.573 13.8 L 69.675 13.335 C 69.834 13.988 70.188 14.502 70.734 14.878 C 71.28 15.253 71.97 15.441 72.802 15.441 C 73.533 15.441 74.096 15.302 74.492 15.025 C 74.895 14.739 75.097 14.351 75.097 13.861 C 75.097 13.559 75.021 13.318 74.87 13.139 C 74.727 12.951 74.407 12.771 73.912 12.6 C 73.416 12.429 72.655 12.212 71.629 11.951 C 70.486 11.657 69.578 11.343 68.905 11.008 C 68.233 10.665 67.75 10.261 67.455 9.796 C 67.161 9.331 67.014 8.767 67.014 8.106 C 67.014 7.282 67.237 6.563 67.682 5.951 C 68.128 5.339 68.75 4.869 69.549 4.543 C 70.347 4.208 71.289 4.041 72.373 4.041 C 73.432 4.041 74.37 4.2 75.185 4.518 C 76.009 4.837 76.673 5.29 77.177 5.878 C 77.682 6.465 77.993 7.155 78.111 7.947 L 75.009 8.486 C 74.933 7.922 74.668 7.478 74.214 7.151 C 73.769 6.824 73.172 6.641 72.424 6.6 C 71.709 6.559 71.133 6.665 70.696 6.918 C 70.259 7.163 70.04 7.51 70.04 7.959 C 70.04 8.212 70.129 8.429 70.305 8.608 C 70.482 8.788 70.835 8.967 71.364 9.147 C 71.902 9.327 72.701 9.547 73.76 9.808 C 74.845 10.078 75.711 10.388 76.358 10.739 C 77.013 11.082 77.484 11.494 77.77 11.975 C 78.064 12.457 78.212 13.041 78.212 13.727 C 78.212 15.057 77.711 16.102 76.711 16.861 C 75.719 17.62 74.344 18 72.588 18 Z M 87.442 17.633 C 86.543 17.796 85.66 17.865 84.794 17.841 C 83.937 17.824 83.168 17.673 82.487 17.388 C 81.806 17.094 81.289 16.633 80.936 16.004 C 80.625 15.433 80.461 14.849 80.444 14.253 C 80.426 13.58 80.418 12.906 80.419 12.233 L 80.419 0.735 L 83.445 0.735 L 83.445 12.061 C 83.445 12.592 83.449 13.057 83.457 13.457 C 83.474 13.857 83.563 14.184 83.722 14.437 C 84.025 14.927 84.508 15.2 85.173 15.257 C 85.837 15.314 86.593 15.282 87.442 15.159 Z M 77.947 6.723 L 77.947 4.408 L 87.442 4.408 L 87.442 6.722 L 77.947 6.722 Z M 94.359 18 C 92.981 18 91.77 17.71 90.728 17.131 C 89.685 16.551 88.87 15.747 88.281 14.718 C 87.701 13.69 87.411 12.506 87.411 11.167 C 87.411 9.722 87.697 8.469 88.269 7.408 C 88.84 6.339 89.635 5.51 90.652 4.922 C 91.669 4.335 92.846 4.041 94.183 4.041 C 95.595 4.041 96.793 4.363 97.776 5.008 C 98.768 5.645 99.504 6.547 99.983 7.714 C 100.462 8.882 100.643 10.257 100.525 11.841 L 97.512 11.841 L 97.512 10.763 C 97.503 9.327 97.243 8.278 96.73 7.616 C 96.217 6.955 95.41 6.624 94.309 6.624 C 93.065 6.624 92.14 7 91.535 7.751 C 90.929 8.494 90.627 9.584 90.627 11.02 C 90.627 12.359 90.929 13.396 91.535 14.131 C 92.14 14.865 93.023 15.233 94.183 15.233 C 94.931 15.233 95.574 15.073 96.112 14.755 C 96.658 14.429 97.079 13.959 97.373 13.347 L 100.374 14.229 C 99.853 15.42 99.046 16.347 97.953 17.008 C 96.868 17.669 95.671 18 94.359 18 Z M 89.668 11.841 L 89.668 9.612 L 99.037 9.612 L 99.037 11.841 Z M 101.826 17.633 L 101.826 4.408 L 104.512 4.408 L 104.512 7.629 L 104.184 7.212 C 104.345 6.783 104.571 6.379 104.852 6.012 C 105.131 5.651 105.478 5.344 105.873 5.106 C 106.215 4.883 106.589 4.71 106.983 4.592 C 107.395 4.461 107.815 4.384 108.244 4.359 C 108.661 4.326 109.08 4.343 109.493 4.408 L 109.493 7.163 C 109.089 7.049 108.622 7.012 108.093 7.053 C 107.572 7.094 107.101 7.237 106.68 7.482 C 106.26 7.702 105.915 7.984 105.646 8.327 C 105.386 8.669 105.192 9.061 105.066 9.502 C 104.94 9.935 104.877 10.404 104.877 10.91 L 104.877 17.633 Z M 115.599 18 C 114.347 18 113.254 17.694 112.321 17.082 C 111.388 16.469 110.665 15.637 110.152 14.584 C 109.639 13.531 109.383 12.343 109.383 11.02 C 109.383 9.682 109.639 8.49 110.152 7.445 C 110.673 6.392 111.409 5.563 112.359 4.959 C 113.309 4.347 114.426 4.041 115.713 4.041 C 117.007 4.041 118.092 4.347 118.966 4.959 C 119.849 5.563 120.517 6.392 120.971 7.445 C 121.425 8.498 121.652 9.69 121.652 11.02 C 121.652 12.335 121.425 13.522 120.971 14.584 C 120.517 15.637 119.84 16.469 118.941 17.082 C 118.041 17.694 116.927 18 115.599 18 Z M 116.066 15.355 C 116.881 15.355 117.537 15.175 118.033 14.816 C 118.537 14.449 118.903 13.939 119.13 13.286 C 119.365 12.633 119.483 11.878 119.483 11.02 C 119.483 10.155 119.365 9.4 119.13 8.755 C 118.903 8.102 118.546 7.596 118.058 7.237 C 117.571 6.869 116.94 6.686 116.167 6.686 C 115.351 6.686 114.679 6.882 114.149 7.273 C 113.62 7.657 113.229 8.18 112.977 8.841 C 112.724 9.494 112.598 10.22 112.598 11.02 C 112.598 11.828 112.72 12.563 112.964 13.224 C 113.216 13.878 113.598 14.396 114.111 14.78 C 114.624 15.163 115.276 15.355 116.066 15.355 Z M 119.483 17.633 L 119.483 8.351 L 119.105 8.351 L 119.105 0 L 122.169 0 L 122.169 17.633 Z M 155.946 17.633 L 155.946 9.6 C 155.946 8.694 155.715 7.988 155.252 7.482 C 154.79 6.967 154.163 6.71 153.373 6.71 C 152.886 6.71 152.449 6.82 152.062 7.041 C 151.675 7.253 151.368 7.571 151.141 7.996 C 150.914 8.412 150.801 8.91 150.801 9.49 L 149.452 8.718 C 149.443 7.804 149.654 7 150.082 6.306 C 150.519 5.604 151.108 5.057 151.848 4.665 C 152.587 4.273 153.411 4.077 154.319 4.077 C 155.824 4.077 156.976 4.518 157.774 5.4 C 158.581 6.273 158.985 7.424 158.985 8.853 L 158.985 17.633 Z M 139.566 17.633 L 139.566 4.408 L 142.252 4.408 L 142.252 8.51 L 142.63 8.51 L 142.63 17.633 Z M 147.775 17.633 L 147.775 9.637 C 147.775 8.714 147.544 7.996 147.081 7.482 C 146.619 6.967 145.988 6.71 145.19 6.71 C 144.416 6.71 143.794 6.967 143.323 7.482 C 142.861 7.996 142.63 8.665 142.63 9.49 L 141.268 8.608 C 141.268 7.751 141.487 6.98 141.924 6.294 C 142.361 5.608 142.949 5.069 143.689 4.678 C 144.437 4.278 145.274 4.078 146.198 4.078 C 147.216 4.078 148.065 4.29 148.746 4.714 C 149.435 5.131 149.948 5.702 150.284 6.429 C 150.629 7.147 150.801 7.959 150.801 8.865 L 150.801 17.633 Z M 129.24 18 C 128.256 18 127.424 17.82 126.743 17.461 C 126.062 17.094 125.545 16.608 125.192 16.004 C 124.847 15.4 124.675 14.735 124.675 14.008 C 124.675 13.371 124.784 12.8 125.003 12.294 C 125.221 11.78 125.558 11.339 126.012 10.971 C 126.466 10.596 127.054 10.29 127.777 10.053 C 128.324 9.882 128.962 9.727 129.694 9.588 C 130.489 9.44 131.288 9.314 132.089 9.208 C 132.955 9.086 133.859 8.955 134.801 8.816 L 133.716 9.416 C 133.725 8.502 133.514 7.829 133.086 7.396 C 132.657 6.963 131.934 6.747 130.917 6.747 C 130.303 6.747 129.71 6.886 129.139 7.163 C 128.567 7.441 128.168 7.918 127.941 8.596 L 125.167 7.751 C 125.503 6.633 126.142 5.735 127.083 5.057 C 128.033 4.38 129.311 4.041 130.917 4.041 C 132.127 4.041 133.191 4.233 134.107 4.616 C 135.032 5 135.717 5.628 136.163 6.502 C 136.406 6.967 136.553 7.445 136.604 7.935 C 136.654 8.416 136.679 8.943 136.679 9.514 L 136.679 17.633 L 134.019 17.633 L 134.019 14.767 L 134.46 15.233 C 133.847 16.188 133.128 16.89 132.304 17.339 C 131.488 17.78 130.467 18 129.24 18 Z M 129.845 15.649 C 130.534 15.649 131.123 15.531 131.61 15.294 C 132.098 15.057 132.485 14.767 132.77 14.425 C 133.065 14.082 133.262 13.759 133.363 13.457 C 133.523 13.082 133.611 12.653 133.628 12.171 C 133.653 11.682 133.666 11.286 133.666 10.984 L 134.599 11.253 C 133.683 11.392 132.897 11.514 132.241 11.62 C 131.585 11.726 131.022 11.828 130.551 11.926 C 130.08 12.016 129.664 12.118 129.303 12.233 C 128.95 12.355 128.651 12.498 128.408 12.661 C 128.164 12.825 127.975 13.012 127.84 13.224 C 127.714 13.437 127.651 13.686 127.651 13.971 C 127.651 14.298 127.735 14.588 127.903 14.841 C 128.071 15.086 128.315 15.282 128.635 15.429 C 128.962 15.575 129.366 15.649 129.845 15.649 Z" fill="rgb(0,0,0)"></path></svg>