<svg xmlns="http://www.w3.org/2000/svg" xmlns:xlink="http://www.w3.org/1999/xlink" viewBox="0 0 87 20"><path d="M 6.576 19.664 L 1.706 7.776 C 1.449 7.142 1.009 6.723 0.385 6.518 L 0 6.406 L 0 6.126 L 7.126 6.126 L 7.126 6.406 L 6.631 6.518 C 5.916 6.704 5.696 7.189 5.971 7.972 L 8.86 15.776 L 11.556 8.028 C 11.703 7.655 11.74 7.347 11.666 7.105 C 11.593 6.863 11.373 6.685 11.006 6.573 L 10.318 6.406 L 10.318 6.126 L 14.308 6.126 L 14.308 6.406 L 13.51 6.601 C 13.161 6.695 12.886 6.835 12.684 7.021 C 12.501 7.208 12.345 7.487 12.217 7.86 L 8.172 19.664 Z M 21.459 5.706 C 22.652 5.706 23.67 5.958 24.513 6.462 C 25.357 6.946 25.999 7.618 26.439 8.476 C 26.898 9.315 27.127 10.275 27.127 11.357 C 27.127 11.562 27.118 11.776 27.1 12 C 27.084 12.19 27.048 12.378 26.99 12.559 L 18.79 12.559 C 18.809 14.573 19.157 16.028 19.836 16.923 C 20.533 17.8 21.56 18.238 22.918 18.238 C 23.835 18.238 24.578 18.089 25.146 17.79 C 25.715 17.492 26.247 17.054 26.742 16.476 L 27.017 16.727 C 26.449 17.753 25.688 18.555 24.734 19.133 C 23.798 19.711 22.67 20 21.349 20 C 20.047 20 18.891 19.72 17.882 19.161 C 16.873 18.583 16.085 17.762 15.516 16.699 C 14.947 15.636 14.663 14.368 14.663 12.895 C 14.663 11.366 14.993 10.07 15.654 9.007 C 16.314 7.925 17.158 7.105 18.185 6.546 C 19.23 5.986 20.322 5.706 21.459 5.706 Z M 21.377 6.266 C 20.845 6.266 20.386 6.434 20.001 6.769 C 19.634 7.086 19.341 7.664 19.121 8.504 C 18.919 9.324 18.809 10.49 18.79 12 L 23.495 12 C 23.679 9.967 23.605 8.504 23.275 7.608 C 22.945 6.713 22.312 6.266 21.377 6.266 Z M 28.774 19.58 L 28.774 19.301 L 29.159 19.189 C 29.801 19.002 30.122 18.546 30.122 17.818 L 30.122 9.063 C 30.122 8.653 30.058 8.354 29.93 8.168 C 29.801 7.963 29.553 7.823 29.187 7.748 L 28.774 7.636 L 28.774 7.356 L 33.479 5.734 L 33.754 6.014 L 33.974 7.692 C 34.616 7.114 35.341 6.639 36.148 6.266 C 36.955 5.893 37.753 5.706 38.542 5.706 C 39.752 5.706 40.679 6.042 41.321 6.713 C 41.981 7.384 42.311 8.41 42.311 9.79 L 42.311 17.846 C 42.311 18.573 42.66 19.03 43.357 19.217 L 43.604 19.301 L 43.604 19.58 L 37.111 19.58 L 37.111 19.301 L 37.469 19.189 C 38.111 18.984 38.432 18.527 38.432 17.818 L 38.432 8.895 C 38.432 7.702 37.845 7.105 36.671 7.105 C 35.863 7.105 34.983 7.515 34.029 8.336 L 34.029 17.846 C 34.029 18.573 34.35 19.03 34.992 19.217 L 35.24 19.301 L 35.24 19.58 Z M 48.258 4.252 C 47.634 4.252 47.102 4.056 46.662 3.664 C 46.24 3.254 46.029 2.741 46.029 2.126 C 46.029 1.492 46.24 0.979 46.662 0.587 C 47.102 0.196 47.634 0 48.258 0 C 48.882 0 49.404 0.196 49.826 0.587 C 50.248 0.979 50.459 1.492 50.459 2.126 C 50.459 2.741 50.248 3.254 49.826 3.664 C 49.404 4.056 48.882 4.252 48.258 4.252 Z M 45.011 19.58 L 45.011 19.301 L 45.397 19.189 C 45.763 19.077 46.011 18.909 46.139 18.685 C 46.286 18.462 46.359 18.163 46.359 17.79 L 46.359 9.035 C 46.359 8.643 46.286 8.354 46.139 8.168 C 46.011 7.963 45.763 7.823 45.397 7.748 L 45.011 7.664 L 45.011 7.384 L 50.046 5.734 L 50.322 6.014 L 50.239 9.986 L 50.239 17.818 C 50.239 18.191 50.303 18.489 50.432 18.713 C 50.578 18.937 50.826 19.105 51.175 19.217 L 51.45 19.301 L 51.45 19.58 Z M 59.767 20 C 58.52 20 57.382 19.73 56.355 19.189 C 55.346 18.629 54.539 17.828 53.934 16.783 C 53.347 15.72 53.053 14.424 53.053 12.895 C 53.053 11.385 53.374 10.098 54.016 9.035 C 54.677 7.953 55.548 7.133 56.63 6.573 C 57.731 5.995 58.932 5.706 60.235 5.706 C 61.298 5.706 62.197 5.883 62.931 6.238 C 63.665 6.592 64.224 7.058 64.61 7.636 C 64.995 8.196 65.187 8.783 65.187 9.399 C 65.187 9.921 65.031 10.331 64.72 10.629 C 64.408 10.909 64.004 11.049 63.509 11.049 C 62.977 11.049 62.546 10.853 62.216 10.462 C 61.886 10.07 61.693 9.557 61.638 8.923 C 61.62 8.513 61.629 8.168 61.666 7.888 C 61.702 7.591 61.702 7.29 61.666 6.993 C 61.592 6.676 61.473 6.471 61.308 6.378 C 61.161 6.266 60.95 6.21 60.675 6.21 C 59.556 6.21 58.685 6.704 58.061 7.692 C 57.456 8.681 57.153 10.256 57.153 12.42 C 57.153 14.303 57.492 15.748 58.171 16.755 C 58.868 17.744 59.932 18.238 61.363 18.238 C 62.225 18.238 62.922 18.079 63.454 17.762 C 63.986 17.445 64.5 16.97 64.995 16.336 L 65.27 16.559 C 64.811 17.66 64.105 18.508 63.151 19.105 C 62.197 19.702 61.069 20 59.767 20 Z M 73.56 5.706 C 74.752 5.706 75.77 5.958 76.614 6.462 C 77.458 6.946 78.1 7.618 78.54 8.476 C 78.999 9.315 79.228 10.275 79.228 11.357 C 79.228 11.562 79.219 11.776 79.2 12 C 79.185 12.19 79.148 12.378 79.09 12.559 L 70.891 12.559 C 70.909 14.573 71.258 16.028 71.936 16.923 C 72.633 17.8 73.661 18.238 75.018 18.238 C 75.935 18.238 76.678 18.089 77.247 17.79 C 77.815 17.492 78.347 17.054 78.843 16.476 L 79.118 16.727 C 78.549 17.753 77.788 18.555 76.834 19.133 C 75.899 19.711 74.77 20 73.45 20 C 72.147 20 70.992 19.72 69.983 19.161 C 68.974 18.583 68.185 17.762 67.616 16.699 C 67.048 15.636 66.764 14.368 66.764 12.895 C 66.764 11.366 67.094 10.07 67.754 9.007 C 68.414 7.925 69.258 7.105 70.286 6.546 C 71.331 5.986 72.422 5.706 73.56 5.706 Z M 73.477 6.266 C 72.945 6.266 72.487 6.434 72.101 6.769 C 71.735 7.086 71.441 7.664 71.221 8.504 C 71.019 9.324 70.909 10.49 70.891 12 L 75.596 12 C 75.779 9.967 75.706 8.504 75.376 7.608 C 75.046 6.713 74.413 6.266 73.477 6.266 Z M 84.451 20 C 83.791 20 83.231 19.767 82.773 19.301 C 82.314 18.834 82.085 18.275 82.085 17.622 C 82.085 16.97 82.314 16.401 82.773 15.916 C 83.231 15.431 83.791 15.189 84.451 15.189 C 85.112 15.189 85.671 15.431 86.13 15.916 C 86.588 16.401 86.817 16.97 86.817 17.622 C 86.817 18.275 86.588 18.834 86.13 19.301 C 85.671 19.767 85.112 20 84.451 20 Z" fill="rgb(5,6,1)"></path></svg>