<svg xmlns="http://www.w3.org/2000/svg" xmlns:xlink="http://www.w3.org/1999/xlink" viewBox="0 0 84 22"><path d="M 26.011 14.881 L 26.011 6.793 L 28.346 6.793 L 30.516 11.431 C 30.571 11.549 30.642 11.714 30.729 11.926 C 30.815 12.13 30.901 12.342 30.988 12.561 C 31.082 12.781 31.169 12.985 31.248 13.174 L 31.318 13.174 C 31.389 13.009 31.468 12.82 31.554 12.608 C 31.641 12.397 31.727 12.188 31.813 11.985 L 32.049 11.455 L 34.22 6.793 L 36.519 6.793 L 36.519 14.881 L 34.986 14.881 L 34.986 9.336 L 35.01 8.818 C 35.018 8.645 35.026 8.496 35.033 8.37 L 34.939 8.37 C 34.892 8.509 34.841 8.646 34.786 8.782 C 34.723 8.939 34.656 9.096 34.585 9.253 C 34.53 9.392 34.471 9.53 34.408 9.665 L 31.991 14.881 L 30.492 14.881 L 28.063 9.665 C 27.992 9.516 27.921 9.363 27.851 9.206 C 27.78 9.042 27.717 8.888 27.662 8.747 C 27.622 8.62 27.579 8.495 27.532 8.371 L 27.438 8.371 C 27.446 8.48 27.45 8.617 27.45 8.782 C 27.457 8.947 27.461 9.12 27.461 9.301 C 27.469 9.473 27.473 9.642 27.473 9.807 L 27.473 14.881 Z M 38.934 14.881 L 38.934 6.793 L 40.455 6.793 L 40.455 14.881 Z M 42.873 14.881 L 42.873 6.793 L 44.394 6.793 L 44.394 13.539 L 49.501 13.539 L 49.501 14.881 Z M 50.224 14.881 L 54.316 6.793 L 56.05 6.793 L 60.143 14.881 L 58.468 14.881 L 57.595 13.138 L 52.665 13.138 L 51.792 14.881 Z M 53.278 11.89 L 56.982 11.89 L 55.908 9.689 C 55.852 9.566 55.793 9.445 55.732 9.324 C 55.661 9.159 55.586 8.99 55.508 8.818 C 55.445 8.663 55.378 8.51 55.307 8.359 C 55.244 8.225 55.201 8.143 55.177 8.111 L 55.083 8.111 C 55 8.296 54.917 8.48 54.835 8.665 C 54.741 8.869 54.65 9.065 54.564 9.253 C 54.496 9.403 54.425 9.553 54.352 9.701 Z M 61.693 14.881 L 61.693 6.793 L 63.144 6.793 L 67.92 11.514 C 68.015 11.6 68.125 11.714 68.251 11.855 C 68.386 11.991 68.52 12.128 68.652 12.267 C 68.793 12.408 68.911 12.534 69.006 12.644 L 69.1 12.644 C 69.091 12.448 69.083 12.251 69.076 12.055 C 69.069 11.855 69.065 11.655 69.065 11.455 L 69.065 6.793 L 70.527 6.793 L 70.527 14.881 L 69.124 14.881 L 64.335 10.113 C 64.139 9.917 63.934 9.704 63.722 9.477 C 63.553 9.296 63.384 9.116 63.215 8.935 L 63.132 8.935 C 63.14 9.053 63.144 9.238 63.144 9.489 C 63.152 9.74 63.156 10.011 63.156 10.301 L 63.156 14.881 Z M 77.758 15.022 C 76.696 15.022 75.78 14.861 75.01 14.539 C 74.239 14.217 73.646 13.747 73.229 13.126 C 72.812 12.499 72.604 11.737 72.604 10.843 C 72.604 9.932 72.812 9.171 73.229 8.559 C 73.646 7.939 74.239 7.468 75.01 7.146 C 75.78 6.816 76.696 6.652 77.758 6.652 C 78.827 6.652 79.747 6.816 80.518 7.146 C 81.296 7.468 81.89 7.939 82.299 8.559 C 82.716 9.171 82.924 9.932 82.924 10.843 C 82.924 11.737 82.716 12.499 82.299 13.126 C 81.89 13.747 81.296 14.217 80.518 14.539 C 79.747 14.861 78.827 15.022 77.758 15.022 Z M 77.77 13.739 C 78.281 13.739 78.753 13.684 79.185 13.574 C 79.625 13.464 80.007 13.295 80.329 13.068 C 80.654 12.846 80.918 12.547 81.096 12.196 C 81.276 11.843 81.367 11.431 81.367 10.96 L 81.367 10.69 C 81.367 10.227 81.276 9.822 81.096 9.477 C 80.918 9.127 80.654 8.827 80.329 8.606 C 80.007 8.378 79.625 8.209 79.185 8.1 C 78.753 7.99 78.281 7.935 77.77 7.935 C 77.251 7.935 76.771 7.99 76.331 8.1 C 75.898 8.21 75.517 8.378 75.187 8.606 C 74.867 8.83 74.608 9.129 74.432 9.477 C 74.259 9.822 74.172 10.227 74.172 10.69 L 74.172 10.96 C 74.172 11.431 74.259 11.843 74.432 12.196 C 74.608 12.544 74.867 12.843 75.187 13.068 C 75.517 13.295 75.898 13.464 76.331 13.574 C 76.771 13.684 77.251 13.739 77.77 13.739 Z" fill="rgb(0,0,0)"></path><path d="M 1.378 22 C 0.617 22 0 22 0 22 L 0 0 C 0 0 0.617 0 1.378 0 L 20.663 0 C 21.424 0 22.041 0 22.041 0 L 22.041 22 C 22.041 22 21.424 22 20.663 22 Z" fill="rgb(0,0,0)"></path><path d="M 5.51 6.875 L 6.781 6.508 L 11.02 13.203 L 15.26 6.508 L 16.531 6.875 L 16.531 15.125 L 15.153 15.125 L 15.153 9.25 L 11.603 14.858 L 10.438 14.858 L 6.888 9.25 L 6.888 15.125 L 5.51 15.125 Z" fill="rgb(255,255,255)"></path></svg>